<?xml version="1.0" encoding="utf-8"?>
<svg viewBox="0 0 200 200" style="shape-rendering:geometricPrecision; text-rendering:geometricPrecision; image-rendering:optimizeQuality; fill-rule:evenodd; clip-rule:evenodd" xmlns="http://www.w3.org/2000/svg">
  <g transform="matrix(1, 0, 0, 1, 6.2319111824035645, 2.8762660026550293)">
    <g>
      <g transform="matrix(1, 0, 0, 1, 55.607819, -0.479378)">
        <path style="opacity: 0.9; fill: rgb(186, 186, 186);" d="M 161.5,28.5 C 163.384,29.3816 164.717,30.8816 165.5,33C 154.915,39.8773 144.082,46.3773 133,52.5C 126.252,47.8757 119.419,43.3757 112.5,39C 109.083,37.8912 105.583,37.0579 102,36.5C 86.2267,42.8034 71.0601,50.3034 56.5,59C 50.674,64.7398 52.0073,67.9065 60.5,68.5C 69.0153,65.913 77.3486,62.7464 85.5,59C 90.1269,58.5727 94.4602,59.5727 98.5,62C 108.044,72.1052 119.71,77.9386 133.5,79.5C 133.286,81.1439 133.62,82.6439 134.5,84C 143.5,89.5 152.5,95 161.5,100.5C 163.519,96.5661 164.852,92.3995 165.5,88C 172.912,84.212 180.079,80.0453 187,75.5C 190.015,77.5161 190.182,79.6828 187.5,82C 181.418,85.1227 175.585,88.6227 170,92.5C 168.991,96.5129 168.324,100.513 168,104.5C 172.172,106.919 176.172,109.585 180,112.5C 183.826,118.706 182.992,124.206 177.5,129C 174.649,130.289 171.649,130.789 168.5,130.5C 170.446,141.715 165.779,147.215 154.5,147C 153.584,146.626 152.75,146.126 152,145.5C 150.564,155.279 145.064,159.113 135.5,157C 132.258,155.361 128.924,154.361 125.5,154C 130.25,160.829 128.916,166.162 121.5,170C 119.833,170.667 118.167,170.667 116.5,170C 112.167,168.167 107.833,166.333 103.5,164.5C 95.8841,170.113 88.7174,169.779 82,163.5C 80.9914,161.975 80.4914,160.308 80.5,158.5C 72.3456,160.423 66.679,157.59 63.5,150C 54.4941,150.994 48.6607,147.161 46,138.5C 35.1451,139.646 30.1451,134.646 31,123.5C 31.6355,122.034 32.4688,120.7 33.5,119.5C 31.2159,114.365 29.5492,109.031 28.5,103.5C 22.0855,100.211 15.9189,96.5444 10,92.5C 9.28826,90.3047 9.95493,88.6381 12,87.5C 19.2325,91.5336 26.3991,95.7003 33.5,100C 34.423,104.524 35.5896,109.024 37,113.5C 39.4674,109.4 42.3007,105.566 45.5,102C 55.0272,98.5479 60.6939,101.715 62.5,111.5C 71.3142,109.325 76.8142,112.658 79,121.5C 88.1512,118.419 93.4845,121.752 95,131.5C 104.709,127.667 110.542,131 112.5,141.5C 122.219,146.127 132.219,149.627 142.5,152C 146.5,149 146.5,146 142.5,143C 131.496,138.165 120.829,132.831 110.5,127C 110.946,125.274 111.779,123.774 113,122.5C 126.816,128.663 140.649,134.829 154.5,141C 159.458,142.69 162.458,141.023 163.5,136C 163.357,133.849 162.357,132.182 160.5,131C 147.335,123.585 134.335,115.919 121.5,108C 123.249,104.088 125.915,103.422 129.5,106C 143.273,112.637 157.106,119.137 171,125.5C 176.718,123.737 177.884,120.404 174.5,115.5C 153.256,101.378 131.256,88.5443 108.5,77C 103.111,72.6112 97.444,68.6112 91.5,65C 89.8333,64.3333 88.1667,64.3333 86.5,65C 79.8333,67.6667 73.1667,70.3333 66.5,73C 61.3822,73.888 56.3822,73.5547 51.5,72C 46.2345,66.7402 46.2345,61.4069 51.5,56C 45.2941,52.4025 39.2941,48.5692 33.5,44.5C 34.5,43.1667 35.5,41.8333 36.5,40.5C 43.4632,44.3006 50.2965,48.3006 57,52.5C 69.0873,45.8727 81.2539,39.3727 93.5,33C 100.143,31.1072 106.81,31.1072 113.5,33C 119.932,37.2976 126.432,41.4643 133,45.5C 142.961,40.4432 152.461,34.7766 161.5,28.5 Z M 50.5,105.5 C 54.046,106.043 56.3793,108.043 57.5,111.5C 54.5,118.167 51.5,124.833 48.5,131.5C 42.3556,135.218 38.0223,133.718 35.5,127C 40.0061,119.354 45.0061,112.188 50.5,105.5 Z M 65.5,116.5 C 69.7663,116.125 72.4329,117.959 73.5,122C 70.864,128.234 68.0307,134.401 65,140.5C 59.0333,146.133 54.5333,144.966 51.5,137C 55.5974,129.743 60.2641,122.91 65.5,116.5 Z M 81.5,125.5 C 87.3259,125.157 89.8259,127.824 89,133.5C 86.4029,139.125 83.9029,144.792 81.5,150.5C 75.917,155.021 71.5836,154.021 68.5,147.5C 72.0318,139.648 76.3651,132.315 81.5,125.5 Z M 97.5,135.5 C 102.406,134.306 105.406,136.139 106.5,141C 103.667,147.5 100.833,154 98,160.5C 92.208,164.738 88.0413,163.404 85.5,156.5C 88.737,149.021 92.737,142.021 97.5,135.5 Z M 108.5,150.5 C 114.246,153.031 119.246,156.531 123.5,161C 122.18,164.206 119.847,165.206 116.5,164C 112.356,162.764 108.69,160.764 105.5,158C 106.214,155.352 107.214,152.852 108.5,150.5 Z"/>
      </g>
    </g>
    <g style="font-style:normal;font-weight:700;font-size:72px;line-height:1;font-family:'Brandmark1 Bold';font-variant-ligatures:normal;text-align:center;text-anchor:middle" stroke-width="1.5" stroke-miterlimit="2" transform="matrix(1, 0, 0, 1, -350.332611, -240.69516)">
      <path style="font-style: normal; font-weight: 700; font-size: 72px; line-height: 1; font-family: 'Brandmark1 Bold'; font-variant-ligatures: normal; text-align: center; text-anchor: middle; fill: rgb(79, 171, 155); stroke: rgb(221, 221, 221);" d="M261.144-18.936V2.52h11.304v-56.16h-11.304v23.976h-21.672V-53.64h-11.304V2.52h11.304v-21.456z" transform="matrix(.77 0 0 .77 90 458.709)"/>
      <path style="font-style: normal; font-weight: 700; font-size: 72px; line-height: 1; font-family: 'Brandmark1 Bold'; font-variant-ligatures: normal; text-align: center; text-anchor: middle; fill: rgb(79, 171, 155); stroke: rgb(221, 221, 221);" d="M280.058-53.64V2.52h36.36V-8.208h-25.056v-11.88h25.056v-10.728h-25.056v-12.096h25.056V-53.64Z" transform="matrix(.77 0 0 .77 94.852 458.709)"/>
      <path style="font-style: normal; font-weight: 700; font-size: 72px; line-height: 1; font-family: 'Brandmark1 Bold'; font-variant-ligatures: normal; text-align: center; text-anchor: middle; fill: rgb(79, 171, 155); stroke: rgb(221, 221, 221);" d="M322.808-50.04V2.52h36.576V-8.208h-25.272V-53.64Z" transform="matrix(.77 0 0 .77 99.703 458.709)"/>
      <path style="font-style: normal; font-weight: 700; font-size: 72px; line-height: 1; font-family: 'Brandmark1 Bold'; font-variant-ligatures: normal; text-align: center; text-anchor: middle; fill: rgb(79, 171, 155); stroke: rgb(221, 221, 221);" d="M383.262-53.64h-20.376V2.52h11.304v-19.512h7.992q4.428 0 7.992-1.08a19.1 19.1 0 0 0 6.624-3.312 16.3 16.3 0 0 0 4.392-5.904c1.008-2.304 1.512-5.04 1.512-7.992 0-5.4-1.584-9.936-4.68-13.104-3.384-3.456-8.352-5.256-14.76-5.256zm-1.656 25.92h-7.416v-15.192h8.424c2.808 0 5.04.648 6.48 1.944 1.368 1.224 2.088 3.096 2.088 5.544 0 2.376-.72 4.248-2.016 5.472-1.656 1.512-4.176 2.232-7.56 2.232z" transform="matrix(.77 0 0 .77 104.554 458.709)"/>
      <path style="font-style: normal; font-weight: 700; font-size: 72px; line-height: 1; font-family: 'Brandmark1 Bold'; font-variant-ligatures: normal; text-align: center; text-anchor: middle; fill: rgb(79, 171, 155); stroke: rgb(221, 221, 221);" d="M407.403-50.04V2.52h11.304v-56.16z" transform="matrix(.77 0 0 .77 109.405 458.709)"/>
      <path style="font-style: normal; font-weight: 700; font-size: 72px; line-height: 1; font-family: 'Brandmark1 Bold'; font-variant-ligatures: normal; text-align: center; text-anchor: middle; fill: rgb(79, 171, 155); stroke: rgb(221, 221, 221);" d="M438.034-32.544 462.946 2.52h10.224v-56.16h-11.304v35.424L436.738-53.64H426.73V2.52h11.304z" transform="matrix(.77 0 0 .77 114.256 458.709)"/>
      <path style="font-style: normal; font-weight: 700; font-size: 72px; line-height: 1; font-family: 'Brandmark1 Bold'; font-variant-ligatures: normal; text-align: center; text-anchor: middle; fill: rgb(79, 171, 155); stroke: rgb(221, 221, 221);" d="M506.07 2.88c3.889 0 7.56-.72 11.089-2.16a28.8 28.8 0 0 0 9.072-6.12c2.592-2.664 4.68-5.688 6.12-9.072 1.44-3.528 2.232-7.272 2.232-11.088v-5.688H506.07v11.304h16.272a17.4 17.4 0 0 1-4.104 6.552 17.1 17.1 0 0 1-12.168 5.04 17.1 17.1 0 0 1-12.168-5.04 17.1 17.1 0 0 1-5.04-12.168 17.1 17.1 0 0 1 5.04-12.168 17.1 17.1 0 0 1 12.168-5.04c2.808 0 5.472.648 7.92 1.944a17.04 17.04 0 0 1 5.976 5.112l9.144-6.624c-2.592-3.6-6.048-6.48-9.936-8.568-3.96-2.088-8.496-3.168-13.104-3.168-3.816 0-7.56.72-11.088 2.232-3.384 1.44-6.408 3.528-9.072 6.12-2.592 2.592-4.608 5.688-6.048 9.072-1.512 3.528-2.232 7.2-2.232 11.088 0 3.816.72 7.56 2.232 11.088A29.4 29.4 0 0 0 485.91-5.4a29.4 29.4 0 0 0 9.072 6.048c3.528 1.512 7.272 2.232 11.088 2.232z" transform="matrix(.77 0 0 .77 119.107 458.709)"/>
      <path style="font-style: normal; font-weight: 700; font-size: 72px; line-height: 1; font-family: 'Brandmark1 Bold'; font-variant-ligatures: normal; text-align: center; text-anchor: middle; fill: rgb(79, 171, 155); stroke: rgb(221, 221, 221);" d="M588.097-18.936V2.52H599.4v-56.16h-11.304v23.976h-21.672V-53.64H555.12V2.52h11.304v-21.456z" transform="matrix(.77 0 0 .77 123.958 458.709)"/>
      <path style="font-style: normal; font-weight: 700; font-size: 72px; line-height: 1; font-family: 'Brandmark1 Bold'; font-variant-ligatures: normal; text-align: center; text-anchor: middle; fill: rgb(79, 171, 155); stroke: rgb(221, 221, 221);" d="m637.18-9.936 4.607 12.456h11.952l-21.384-56.16h-9.72L601.323 2.52h12.024l4.536-12.456zm-9.72-26.496 5.903 15.984H621.7z" transform="matrix(.77 0 0 .77 128.809 458.709)"/>
      <path style="font-style: normal; font-weight: 700; font-size: 72px; line-height: 1; font-family: 'Brandmark1 Bold'; font-variant-ligatures: normal; text-align: center; text-anchor: middle; fill: rgb(79, 171, 155); stroke: rgb(221, 221, 221);" d="M666.972-32.544 691.884 2.52h10.224v-56.16h-11.304v35.424L665.676-53.64h-10.008V2.52h11.304z" transform="matrix(.77 0 0 .77 133.66 458.709)"/>
      <path style="font-style: normal; font-weight: 700; font-size: 72px; line-height: 1; font-family: 'Brandmark1 Bold'; font-variant-ligatures: normal; text-align: center; text-anchor: middle; fill: rgb(79, 171, 155); stroke: rgb(221, 221, 221);" d="M709.808 2.592h18.432c3.816 0 7.56-.72 11.016-2.16 3.384-1.44 6.408-3.456 9-6.048 2.664-2.52 4.68-5.544 6.12-8.928 1.512-3.456 2.232-7.2 2.232-11.016s-.72-7.56-2.232-11.016c-1.44-3.384-3.528-6.336-6.12-8.928a27 27 0 0 0-9-5.976 28.9 28.9 0 0 0-11.016-2.16h-18.432zM728.24-8.712h-7.128v-33.624h7.128c4.608 0 8.928 1.728 12.096 4.896 3.24 3.168 4.968 7.344 4.968 11.88s-1.728 8.784-4.968 11.952-7.488 4.896-12.096 4.896z" transform="matrix(.77 0 0 .77 138.51 458.709)"/>
      <path style="font-style: normal; font-weight: 700; font-size: 72px; line-height: 1; font-family: 'Brandmark1 Bold'; font-variant-ligatures: normal; text-align: center; text-anchor: middle; fill: rgb(79, 171, 155); stroke: rgb(221, 221, 221);" d="M778.979 2.952c5.112 0 9.936-1.512 13.464-4.176q2.916-2.268 4.536-5.4c1.08-2.232 1.656-4.68 1.656-7.344 0-4.896-1.656-8.712-5.184-11.52-2.88-2.448-6.768-3.96-10.872-5.544-.432-.216-.936-.36-1.368-.576-2.952-1.08-5.688-2.16-7.416-3.312-1.152-.864-1.944-1.8-1.944-3.456.072-3.672 3.6-4.968 6.624-4.968 3.24 0 7.128 1.656 10.728 4.608l2.016 1.656 6.912-9-1.944-1.512c-5.328-4.32-11.448-6.552-17.712-6.552-4.824 0-9.36 1.584-12.744 4.536-3.456 3.024-5.4 7.056-5.4 11.52 0 2.52.576 4.896 1.584 6.912 1.008 1.872 2.304 3.456 4.176 4.896 3.168 2.52 7.056 4.104 11.16 5.616.216.072.504.144.792.288 2.952 1.08 5.472 2.088 7.056 3.24 1.44 1.008 1.944 2.16 1.944 3.888 0 1.584-.576 2.808-1.872 3.744-1.368 1.008-3.6 1.584-6.12 1.584-2.16 0-4.392-.504-6.48-1.512a16.34 16.34 0 0 1-5.688-4.464l-1.872-2.376-7.488 8.856 1.512 1.656c5.256 5.616 12.384 8.712 19.944 8.712z" transform="matrix(.77 0 0 .77 143.362 458.709)"/>
    </g>
  </g>
</svg>